<svg width="62" height="38" viewBox="0 0 62 38" fill="none" xmlns="http://www.w3.org/2000/svg">
<path d="M0.44043 12.5734L2.25319 12.4865L2.34723 14.0875L0.534467 14.1743L0.44043 12.5734Z" fill="#FF7913"/>
<path d="M30.0925 35.4276H31.9072V37.0302H30.0925V35.4276Z" fill="#FF7913"/>
<path d="M30.0925 32.2225H31.9072V33.8251H30.0925V32.2225Z" fill="#FF7913"/>
<path d="M30.0925 29.0173H31.9072V30.6199H30.0925V29.0173Z" fill="#FF7913"/>
<path d="M23.2969 32.2225H25.1116V33.8251H23.2969V32.2225Z" fill="#FF7913"/>
<path d="M23.2969 35.4276H25.1116V37.0302H23.2969V35.4276Z" fill="#FF7913"/>
<path d="M23.2969 29.0173H25.1116V30.6199H23.2969V29.0173Z" fill="#FF7913"/>
<path d="M16.5015 32.2225H18.3162V33.8251H16.5015V32.2225Z" fill="#FF7913"/>
<path d="M16.5015 29.0173H18.3162V30.6199H16.5015V29.0173Z" fill="#FF7913"/>
<path d="M16.5015 35.4276H18.3162V37.0302H16.5015V35.4276Z" fill="#FF7913"/>
<path d="M9.70581 35.4276H11.5205V37.0302H9.70581V35.4276Z" fill="#FF7913"/>
<path d="M9.70581 29.0173H11.5205V30.6199H9.70581V29.0173Z" fill="#FF7913"/>
<path d="M9.70581 32.2225H11.5205V33.8251H9.70581V32.2225Z" fill="#FF7913"/>
<path d="M36.8882 32.2225H38.7029V33.8251H36.8882V32.2225Z" fill="#FF7913"/>
<path d="M36.8882 29.0173H38.7029V30.6199H36.8882V29.0173Z" fill="#FF7913"/>
<path d="M36.8882 35.4276H38.7029V37.0302H36.8882V35.4276Z" fill="#FF7913"/>
<path d="M43.6838 32.2225H45.4985V33.8251H43.6838V32.2225Z" fill="#FF7913"/>
<path d="M43.6838 29.0173H45.4985V30.6199H43.6838V29.0173Z" fill="#FF7913"/>
<path d="M43.6838 35.4276H45.4985V37.0302H43.6838V35.4276Z" fill="#FF7913"/>
<path d="M50.4795 29.0173H52.2942V30.6199H50.4795V29.0173Z" fill="#FF7913"/>
<path d="M50.4795 35.4276H52.2942V37.0302H50.4795V35.4276Z" fill="#FF7913"/>
<path d="M50.4795 32.2225H52.2942V33.8251H50.4795V32.2225Z" fill="#FF7913"/>
<path d="M24.3503 11.1471H37.6496V12.7862H24.3503V11.1471Z" fill="#FF7913"/>
<path d="M60.7544 2.24712C59.8891 1.42331 58.7203 0.969727 57.4631 0.969727H4.53683C3.27961 0.969727 2.11083 1.42342 1.24558 2.24712C0.380458 3.07092 -0.0596659 4.14899 0.00651 5.2828L0.337631 10.9647L2.14979 10.8785L1.81866 5.19658C1.77898 4.51625 2.04296 3.86937 2.5622 3.37513C3.08145 2.88089 3.78277 2.6087 4.53695 2.6087H57.4631C58.2173 2.6087 58.9188 2.88089 59.4379 3.37513C59.957 3.86937 60.2211 4.51625 60.1814 5.19658L59.2616 20.9752C59.2362 21.4106 58.8382 21.7517 58.3555 21.7517H56.4775V15.1743H5.52258V21.7517H3.64449C3.16178 21.7517 2.76376 21.4106 2.73835 20.9753L2.42961 15.6796L0.617457 15.7658L0.926197 21.0614C0.989349 22.1433 1.82024 23.0291 2.92623 23.3021L3.46012 24.869C3.81374 25.9071 4.85912 26.6045 6.06166 26.6045H55.9381C57.1405 26.6045 58.186 25.9071 58.5396 24.869L59.0735 23.3021C60.1796 23.0291 61.0104 22.1433 61.0735 21.0614L61.9933 5.2828C62.0596 4.14899 61.6195 3.07092 60.7544 2.24712ZM7.33727 16.8135H54.6628V21.7518H7.33727V16.8135ZM56.8054 24.3871C56.6874 24.7331 56.339 24.9655 55.9382 24.9655H6.06178C5.6611 24.9655 5.31256 24.7331 5.1946 24.3871L4.85525 23.3909H5.52258H56.4775H57.1448L56.8054 24.3871Z" fill="#FF7913"/>
<path d="M12.9431 4.53442H14.7174V6.1735H12.9431V4.53442Z" fill="#FF7913"/>
<path d="M9.39453 4.53442H11.1688V6.1735H9.39453V4.53442Z" fill="#FF7913"/>
<path d="M5.84595 4.53442H7.62023V6.1735H5.84595V4.53442Z" fill="#FF7913"/>
</svg>
