<svg width="47" height="56" viewBox="0 0 47 56" fill="none" xmlns="http://www.w3.org/2000/svg">
<path d="M35.5124 34.9453H29.8834V32.9768C32.9383 31.2309 35.0353 28.2711 35.3061 24.8701C37.8033 24.4943 39.7116 22.5592 39.7116 20.2341V18.293C39.7116 16.77 38.3178 15.531 36.6044 15.531H35.3365V14.3347C36.6045 13.5167 37.4498 12.2119 37.5213 10.7312L39.6141 7.01124C39.7917 6.69536 39.7221 6.31397 39.4413 6.06427L35.0729 2.18137C34.944 2.06685 34.7798 1.98876 34.601 1.95704L23.7886 0.0374061C23.7015 0.0130156 23.6087 0 23.5128 0H23.4871C23.3913 0 23.2986 0.0130156 23.2114 0.0374061L12.3989 1.95726C12.2201 1.98898 12.056 2.06707 11.9272 2.18159L7.55901 6.06449C7.27748 6.31474 7.2082 6.69711 7.38711 7.01321L9.48505 10.7208C9.55297 12.2034 10.3962 13.5105 11.6636 14.3308V15.5312H10.3958C8.68255 15.5312 7.28867 16.7702 7.28867 18.2932V20.2343C7.28867 22.5593 9.19688 24.4944 11.6941 24.8704C11.9649 28.2715 14.062 31.2314 17.1171 32.9772V34.9455H11.5312C5.60294 34.9455 0.780014 39.2325 0.780014 44.4992L0.736578 55.1767C0.735717 55.3948 0.832555 55.6042 1.00568 55.7587C1.17881 55.9132 1.41407 56 1.65943 56H8.21165C8.7213 56 9.13449 55.6328 9.13449 55.1797C9.13449 54.7266 8.7213 54.3594 8.21165 54.3594H2.58547L2.62546 44.5021C2.62546 40.1372 6.62041 36.5861 11.5309 36.5861H13.5819L11.6844 43.3325C11.6076 43.6052 11.6935 43.8941 11.9118 44.0975C12.0877 44.2615 12.3299 44.3517 12.5797 44.3517C12.6398 44.3517 12.7004 44.3465 12.7607 44.3357L18.8095 43.2604L21.3715 45.6893L18.4453 54.3592H12.3152C11.8056 54.3592 11.3924 54.7263 11.3924 55.1795C11.3924 55.6326 11.8056 55.9998 12.3152 55.9998H19.1289C19.13 55.9998 19.1312 56 19.1323 56C19.1332 56 19.1342 55.9998 19.1352 55.9998H27.865C27.866 55.9998 27.867 56 27.8679 56C27.869 56 27.8702 55.9998 27.8713 55.9998H45.3408C45.8506 55.9998 46.2636 55.6326 46.2636 55.1795V44.5019C46.2636 39.2323 41.4407 34.9453 35.5124 34.9453ZM11.6635 23.186C10.2071 22.8283 9.13425 21.6409 9.13425 20.2342V18.2931C9.13425 17.6748 9.70014 17.1717 10.3957 17.1717H11.6635V23.186ZM31.5156 36.5859L33.1714 42.4725L25.2021 41.0557L29.393 36.5859H31.5156ZM23.5002 40.3084L18.9627 35.4685V33.8372C20.3608 34.355 21.8934 34.6416 23.5 34.6416C25.1068 34.6416 26.6396 34.355 28.0377 33.8371V35.4685L23.5002 40.3084ZM36.6044 17.1717C37.2999 17.1717 37.8659 17.6748 37.8659 18.2931V20.2342C37.8659 21.641 36.793 22.8284 35.3365 23.186V17.1717H36.6044ZM10.9091 9.58646L9.33543 6.8055L13.0346 3.51727L23.5 1.6591L33.9655 3.51738L37.6659 6.80638L36.1011 9.58788L27.6733 7.92714V4.703C27.6733 4.24986 27.2602 3.88269 26.7504 3.88269H20.1982C19.6886 3.88269 19.2754 4.24986 19.2754 4.703V7.92856L10.9091 9.58646ZM25.8277 5.52331V8.14655L23.4744 9.54151L21.1212 8.14709V5.52331H25.8277ZM11.4015 11.1698L20.0144 9.46298L22.9624 11.2099C23.1175 11.3018 23.2959 11.3477 23.4743 11.3477C23.6527 11.3477 23.8313 11.3018 23.9863 11.2099L26.935 9.46221L35.6051 11.1706C35.2718 12.5515 33.8879 13.5897 32.2363 13.5897H14.7704C13.1185 13.5897 11.7345 12.5511 11.4015 11.1698ZM13.5092 24.12V15.0942C13.9136 15.1825 14.3357 15.2303 14.7704 15.2303H32.2362C32.6685 15.2303 33.0883 15.1829 33.4907 15.0955V24.12C33.4907 29.0169 29.0088 33.0008 23.4999 33.0008C17.991 33.0008 13.5092 29.017 13.5092 24.12ZM13.8287 42.4725L15.4844 36.5859H17.6076L21.7982 41.0557L13.8287 42.4725ZM20.9399 42.8814L23.4999 42.4263L26.0599 42.8814L24.192 44.6522H22.8077L20.9399 42.8814ZM20.3722 54.3592L23.0947 46.2928H23.9055L26.628 54.3592H20.3722ZM44.4182 54.3592H44.4179H28.5549L25.6287 45.689L28.1907 43.2602L34.2394 44.3355C34.2996 44.3462 34.3601 44.3515 34.4204 44.3515C34.6701 44.3515 34.9123 44.2613 35.0883 44.0973C35.3066 43.8938 35.3925 43.605 35.3158 43.3322L33.4183 36.5859H35.5127C40.4232 36.5859 44.4182 40.1371 44.4182 44.5019V54.3592Z" fill="#FF7913"/>
</svg>
