<svg width="63" height="50" viewBox="0 0 63 50" fill="none" xmlns="http://www.w3.org/2000/svg">
<path d="M61.0312 47.75H57.9083C58.0208 47.4691 58.0782 47.1731 58.0781 46.875V45.125H59.0625C59.3236 45.125 59.574 45.0328 59.7586 44.8687C59.9432 44.7046 60.0469 44.4821 60.0469 44.25V41.625C60.0469 41.3929 59.9432 41.1704 59.7586 41.0063C59.574 40.8422 59.3236 40.75 59.0625 40.75V33.75C59.0613 32.8221 58.6461 31.9324 57.9079 31.2763C57.1698 30.6201 56.1689 30.251 55.125 30.25H52.9938L51.708 23.9686L51.612 23.4994C51.4479 22.6926 50.9701 21.9628 50.262 21.4374C49.554 20.912 48.6608 20.6245 47.7385 20.625H29.0428C28.1204 20.6245 27.2272 20.912 26.5192 21.4374C25.8112 21.9628 25.3334 22.6926 25.1692 23.4994L25.0733 23.9686L23.7874 30.25H21.6562C20.6123 30.251 19.6115 30.6201 18.8733 31.2763C18.1351 31.9324 17.7199 32.8221 17.7188 33.75V40.75C17.4577 40.75 17.2073 40.8422 17.0227 41.0063C16.8381 41.1704 16.7344 41.3929 16.7344 41.625V44.25C16.7344 44.4821 16.8381 44.7046 17.0227 44.8687C17.2073 45.0328 17.4577 45.125 17.7188 45.125H18.7031V46.875C18.703 47.1731 18.7605 47.4691 18.8729 47.75H16.7344V46C16.7344 45.7679 16.6307 45.5454 16.4461 45.3813C16.2615 45.2172 16.0111 45.125 15.75 45.125H10.8281V19.75H11.8125C12.0736 19.75 12.324 19.6578 12.5086 19.4937C12.6932 19.3296 12.7969 19.1071 12.7969 18.875V17.125H16.7344C16.9954 17.125 17.2458 17.0328 17.4304 16.8687C17.615 16.7046 17.7188 16.4821 17.7188 16.25V1.375C17.7188 1.14294 17.615 0.920376 17.4304 0.756282C17.2458 0.592187 16.9954 0.5 16.7344 0.5H2.95312C2.69205 0.5 2.44167 0.592187 2.25707 0.756282C2.07246 0.920376 1.96875 1.14294 1.96875 1.375V16.25C1.96875 16.4821 2.07246 16.7046 2.25707 16.8687C2.44167 17.0328 2.69205 17.125 2.95312 17.125H6.89062V18.875C6.89062 19.1071 6.99434 19.3296 7.17894 19.4937C7.36355 19.6578 7.61393 19.75 7.875 19.75H8.85938V45.125H3.9375C3.67643 45.125 3.42605 45.2172 3.24144 45.3813C3.05684 45.5454 2.95312 45.7679 2.95312 46V47.75H1.96875C1.70768 47.75 1.4573 47.8422 1.27269 48.0063C1.08809 48.1704 0.984375 48.3929 0.984375 48.625C0.984375 48.8571 1.08809 49.0796 1.27269 49.2437C1.4573 49.4078 1.70768 49.5 1.96875 49.5H61.0312C61.2923 49.5 61.5427 49.4078 61.7273 49.2437C61.9119 49.0796 62.0156 48.8571 62.0156 48.625C62.0156 48.3929 61.9119 48.1704 61.7273 48.0063C61.5427 47.8422 61.2923 47.75 61.0312 47.75ZM10.8281 18H8.85938V17.125H10.8281V18ZM3.9375 15.375V2.25H15.75V15.375H3.9375ZM14.7656 47.75H4.92188V46.875H14.7656V47.75ZM29.0428 22.375H47.7385C48.0842 22.3747 48.4239 22.4554 48.7233 22.609C49.0227 22.7627 49.2713 22.9838 49.4439 23.25H27.3373C27.51 22.9838 27.7585 22.7627 28.0579 22.609C28.3573 22.4554 28.697 22.3747 29.0428 22.375ZM26.8636 25H49.9177L50.9919 30.25H25.7894L26.8636 25ZM19.6875 33.75C19.6882 33.2861 19.8958 32.8413 20.2649 32.5132C20.634 32.1852 21.1343 32.0006 21.6562 32H55.125C55.6469 32.0006 56.1473 32.1852 56.5164 32.5132C56.8854 32.8413 57.0931 33.2861 57.0938 33.75V40.75H19.6875V33.75ZM24.6094 46.875C24.609 47.107 24.5052 47.3293 24.3207 47.4934C24.1361 47.6574 23.886 47.7497 23.625 47.75H21.6562C21.3953 47.7497 21.1451 47.6574 20.9606 47.4934C20.7761 47.3293 20.6722 47.107 20.6719 46.875V45.125H24.6094V46.875ZM26.4083 47.75C26.5208 47.4691 26.5782 47.1731 26.5781 46.875V45.125H50.2031V46.875C50.203 47.1731 50.2605 47.4691 50.3729 47.75H26.4083ZM56.1094 46.875C56.109 47.107 56.0052 47.3293 55.8207 47.4934C55.6361 47.6574 55.386 47.7497 55.125 47.75H53.1562C52.8953 47.7497 52.6451 47.6574 52.4606 47.4934C52.2761 47.3293 52.1722 47.107 52.1719 46.875V45.125H56.1094V46.875ZM18.7031 43.375V42.5H58.0781V43.375H18.7031Z" fill="#FF7913"/>
</svg>
